<?xml version="1.0" encoding="UTF-8"?>
<svg width="700pt" height="700pt" version="1.1" viewBox="0 0 700 700" xmlns="http://www.w3.org/2000/svg">
 <g>
  <path d="m525 525c18.566 0 36.371-7.375 49.496-20.504 13.129-13.125 20.504-30.93 20.504-49.496v-227.5h-165.96c-3.6953 0-7.2969 1.1719-10.285 3.3438-2.9922 2.1758-5.2188 5.2383-6.3594 8.7578l-8.6719 26.75c-1.1836 3.5156-3.4414 6.5781-6.457 8.7422-3.0156 2.168-6.6328 3.332-10.348 3.332h-73.852 0.003907c-3.7148 0-7.332-1.168-10.348-3.332-3.0117-2.168-5.2695-5.2266-6.4531-8.7422l-8.6758-26.75h-0.003906c-1.1406-3.5195-3.3633-6.582-6.3555-8.7578-2.9883-2.1719-6.5898-3.3438-10.289-3.3438h-165.95v227.5c0 18.566 7.375 36.371 20.5 49.5 13.129 13.125 30.934 20.5 49.5 20.5zm-86.098-53.902 102.2-102.2v0.003907c3.1406-3.1836 7.8867-4.1562 12.027-2.4688 4.1406 1.6836 6.8516 5.6992 6.875 10.172v78.398c-0.027344 9.2734-3.7227 18.16-10.281 24.719s-15.445 10.254-24.719 10.281h-78.398c-4.4727-0.023438-8.4883-2.7344-10.172-6.875-1.6875-4.1406-0.71094-8.8867 2.4727-12.027zm-298.9-16.098v-78.398c0.023438-4.4727 2.7344-8.4883 6.875-10.172 4.1406-1.6875 8.8867-0.71484 12.027 2.4688l102.2 102.2v-0.003906c3.1836 3.1406 4.1602 7.8867 2.4727 12.027-1.6836 4.1406-5.6992 6.8555-10.172 6.875h-78.398c-9.2734-0.027344-18.16-3.7227-24.719-10.281s-10.254-15.445-10.281-24.719z"/>
  <path d="m427.35 192.5h167.65v-52.5c-0.023438-27.84-11.09-54.535-30.777-74.223s-46.383-30.754-74.223-30.777h-280c-27.84 0.023438-54.535 11.09-74.223 30.777s-30.754 46.383-30.777 74.223v52.5h167.65c-0.64453-6.2617 2.0859-12.395 7.1719-16.102l59.848-43.574v-0.003907c3.0234-2.1328 6.6289-3.2812 10.328-3.2812s7.3047 1.1484 10.328 3.2812l59.848 43.574v0.003907c5.0859 3.707 7.8164 9.8398 7.1719 16.102z"/>
  <path d="m350 255.96c4.6406 0.003907 9.0938-1.8398 12.375-5.1211 3.2812-3.2852 5.125-7.7344 5.125-12.379v-17.578c7.1797-5 11.879-12.836 12.91-21.523 1.0312-8.6914-1.7031-17.406-7.5156-23.949s-14.145-10.285-22.895-10.285-17.082 3.7422-22.895 10.285-8.5469 15.258-7.5156 23.949c1.0312 8.6875 5.7305 16.523 12.91 21.523v17.582-0.003907c0 4.6445 1.8438 9.0938 5.125 12.379 3.2812 3.2812 7.7344 5.125 12.375 5.1211z"/>
 </g>
</svg>
