<?xml version="1.0" standalone="no"?>
<!DOCTYPE svg PUBLIC "-//W3C//DTD SVG 20010904//EN"
 "http://www.w3.org/TR/2001/REC-SVG-20010904/DTD/svg10.dtd">
<svg version="1.0" xmlns="http://www.w3.org/2000/svg"
 width="700.000000pt" height="528.000000pt" viewBox="0 0 700.000000 528.000000"
 preserveAspectRatio="xMidYMid meet">

<g transform="translate(0.000000,528.000000) scale(0.100000,-0.100000)"
fill="#000000" stroke="none">
<path d="M2315 4539 c-60 -5 -175 -18 -255 -29 -476 -68 -782 -201 -878 -384
l-27 -51 -3 -1187 -2 -1186 21 -59 c70 -186 380 -334 847 -402 220 -33 362
-43 594 -45 l216 -1 4 -155 c3 -145 5 -158 30 -206 36 -68 129 -152 224 -201
573 -297 1935 -297 2508 0 95 49 182 127 221 199 l30 53 3 626 c3 623 2 627
-19 685 -98 264 -679 444 -1441 448 l-217 1 -3 715 -3 715 -27 51 c-114 217
-533 367 -1154 413 -161 13 -508 12 -669 0z m548 -329 c323 -17 569 -57 770
-126 105 -37 187 -78 187 -94 0 -14 -133 -75 -228 -104 -110 -34 -296 -72
-463 -93 -172 -22 -714 -25 -894 -5 -316 35 -661 127 -720 192 -16 17 -15 19
27 43 155 91 526 168 888 186 227 12 218 12 433 1z m-1264 -634 c607 -195
1612 -189 2169 15 29 10 57 19 62 19 6 0 10 -37 10 -84 0 -81 -1 -85 -27 -104
-135 -95 -454 -173 -827 -202 -572 -45 -1240 44 -1468 195 l-38 25 0 85 c0 47
3 85 7 85 3 0 54 -15 112 -34z m0 -560 c607 -195 1612 -189 2169 15 29 10 57
19 62 19 6 0 10 -37 10 -84 0 -81 -1 -85 -27 -104 -135 -95 -454 -173 -827
-202 -572 -45 -1240 44 -1468 195 l-38 25 0 85 c0 47 3 85 7 85 3 0 54 -15
112 -34z m19 -566 c303 -95 784 -152 1161 -136 l155 6 -27 -28 c-34 -36 -77
-129 -77 -169 l0 -33 -183 0 c-496 0 -962 87 -1139 212 -27 19 -28 23 -28 104
0 46 3 84 6 84 3 0 63 -18 132 -40z m3232 -168 c254 -35 484 -96 603 -160 26
-14 46 -30 44 -36 -6 -18 -105 -64 -217 -100 -504 -164 -1424 -160 -1912 10
-102 36 -180 74 -186 92 -4 14 122 74 224 105 155 49 408 92 639 111 28 2 187
2 355 1 234 -3 339 -8 450 -23z m-3251 -386 c285 -92 621 -138 1018 -140 l213
-1 0 -112 0 -113 -183 0 c-496 0 -962 87 -1139 212 -27 19 -28 23 -28 104 0
46 3 84 7 84 3 0 54 -15 112 -34z m1678 -224 c566 -190 1573 -188 2137 4 55
19 102 34 103 34 2 0 3 -38 3 -84 l0 -85 -35 -26 c-108 -83 -430 -164 -775
-196 -161 -14 -579 -14 -740 0 -340 31 -669 114 -777 197 -33 25 -33 25 -33
111 0 70 3 84 14 80 8 -3 54 -19 103 -35z m0 -560 c602 -202 1655 -185 2229
35 11 4 14 -10 14 -80 l0 -86 -35 -26 c-108 -83 -430 -164 -775 -196 -182 -16
-595 -14 -780 5 -334 34 -632 112 -737 192 -33 25 -33 25 -33 111 0 70 3 84
14 80 8 -3 54 -19 103 -35z"/>
</g>
</svg>
