<?xml version="1.0" encoding="UTF-8"?>
<svg width="700pt" height="700pt" version="1.1" viewBox="0 0 700 700" xmlns="http://www.w3.org/2000/svg">
 <g>
  <path d="m353.08 198.03c0 11.914-9.6602 21.578-21.574 21.578-11.918 0-21.578-9.6641-21.578-21.578 0-11.918 9.6602-21.578 21.578-21.578 11.914 0 21.574 9.6602 21.574 21.578"/>
  <path d="m390.07 249.76c0 8.5039-6.8945 15.398-15.398 15.398-8.5078 0-15.402-6.8945-15.402-15.398 0-8.5078 6.8945-15.402 15.402-15.402 8.5039 0 15.398 6.8945 15.398 15.402"/>
  <path d="m440.81 252.52v-101.54h0.96094c12.406 0 22.453-10.062 22.453-22.453 0-12.406-10.047-22.469-22.453-22.469h-34.965l13.949-61.25c3.2539-14.07-5.9492-25.586-20.406-25.586h-100.7c-14.422 0-23.625 11.516-20.406 25.586l13.984 61.25h-35c-12.406 0-22.453 10.062-22.453 22.469 0 12.391 10.047 22.453 22.453 22.453h0.99609v101.54c-59.516 32.918-97.457 96.441-97.457 164.68 0 43.086 14.281 83.668 41.246 117.41 3.1172 3.8867 7.8242 6.1445 12.812 6.1445h268.34c4.9883 0 9.6758-2.2734 12.809-6.1602 26.969-33.738 41.211-74.324 41.211-117.41 0.039063-68.234-37.867-131.74-97.383-164.66zm35.242 255.41h-252.1c-19.215-26.582-29.363-57.785-29.363-90.754 0-60.113 33.773-113.71 88.164-139.91 5.6719-2.7305 9.293-8.4688 9.293-14.789l-0.003907-111.49h115.97v111.51c0 6.3008 3.5859 12.039 9.2578 14.789 54.371 26.199 88.148 79.816 88.148 139.91 0 32.969-10.117 64.168-29.367 90.734z"/>
  <path d="m413.23 301.37h-126.47c-42.719 23.293-69.23 66.922-69.23 115.83 0 24.238 6.4414 47.355 18.742 67.777h227.43c12.301-20.422 18.727-43.539 18.727-67.777 0.019531-48.91-26.426-92.539-69.195-115.83z"/>
 </g>
</svg>
